<svg version="1.1" id="Layer_1" xmlns="http://www.w3.org/2000/svg" xmlns:xlink="http://www.w3.org/1999/xlink" x="0px" y="0px"
	 width="100%" viewBox="0 0 1877 56" enable-background="new 0 0 1877 56" xml:space="preserve">
<path fill="#B4E4F8" opacity="1.000000" stroke="none" 
	d="
M1877.619751,25.672894 
	C1878.000000,35.354229 1878.000000,44.708458 1878.000000,54.531342 
	C1871.485962,57.028496 1864.824585,55.757614 1858.230957,55.784332 
	C1856.432495,55.791622 1854.590210,55.496777 1852.760864,55.504436 
	C1768.452759,55.857635 1684.141602,55.400414 1599.842163,54.695019 
	C1554.037109,54.311741 1508.211670,55.222713 1462.435791,53.832775 
	C1419.453369,52.527660 1376.470703,54.214832 1333.526367,52.881504 
	C1287.548584,51.453995 1241.562256,53.225098 1195.619873,51.838787 
	C1152.304932,50.531757 1108.988159,52.216248 1065.711060,50.874359 
	C1020.399170,49.469379 975.079895,51.228413 929.804199,49.844570 
	C885.823059,48.500301 841.838806,50.236073 797.895813,48.867046 
	C752.916321,47.465729 707.930542,49.242397 662.988464,47.847729 
	C618.840637,46.477711 574.689575,48.241131 530.579956,46.865349 
	C485.766785,45.467625 440.947510,47.245602 396.172119,45.848595 
	C352.024139,44.471169 307.873016,46.241535 263.763184,44.866753 
	C218.783463,43.464863 173.796921,45.252258 128.855606,43.834896 
	C89.038330,42.579128 49.240170,43.614212 9.438753,43.026951 
	C6.813646,42.988220 4.075688,43.427391 1.376115,41.322853 
	C1.000000,36.310745 1.000000,31.621489 1.000000,26.466118 
	C2.502306,24.457655 4.397759,24.010904 6.468276,23.988155 
	C8.801044,23.962526 11.133679,23.956038 13.466411,23.956034 
	C630.820984,23.955267 1248.175537,23.953209 1865.530151,24.001621 
	C1869.443970,24.001928 1873.561523,22.986349 1877.619751,25.672894 
z"/>
<path fill="#6AC8F2" opacity="1.000000" stroke="none" 
	d="
M1878.000000,25.531366 
	C1876.500610,26.018744 1875.001343,26.053904 1873.501953,26.053909 
	C1250.479980,26.056160 627.458008,26.056026 4.435997,26.055248 
	C3.602886,26.055246 2.769775,26.045059 1.468332,26.019815 
	C1.000000,22.307091 1.000000,18.614182 1.000000,14.460636 
	C3.080208,11.817704 5.802449,12.036963 8.469143,11.959452 
	C64.091713,10.342703 119.744675,11.898564 175.354919,10.733918 
	C227.496201,9.641922 279.641052,11.162366 331.747345,9.753292 
	C380.557678,8.433347 429.367981,10.150093 478.143921,8.797066 
	C530.116577,7.355361 582.097473,9.175292 634.036560,7.741630 
	C677.849915,6.532258 721.652161,7.891104 765.440125,6.872393 
	C822.570496,5.543280 879.718750,6.958575 936.827209,5.713653 
	C986.471252,4.631450 1036.115234,6.175742 1085.722900,4.783805 
	C1136.696899,3.353535 1187.674438,5.137360 1238.616821,3.782252 
	C1289.091553,2.439594 1339.557495,3.800390 1390.016357,2.944623 
	C1440.660278,2.085722 1491.307129,3.127060 1541.943237,2.410078 
	C1592.588501,1.692966 1643.235107,2.625835 1693.870850,1.882905 
	C1725.854492,1.413640 1757.831787,1.788026 1790.303711,1.503400 
	C1803.530884,1.503816 1816.265015,1.503463 1829.489380,1.503418 
	C1845.692993,1.543764 1861.406494,1.423239 1877.559814,1.782056 
	C1878.000000,9.687576 1878.000000,17.375153 1878.000000,25.531366 
z"/>
<path fill="#FEFFFF" opacity="1.000000" stroke="none" 
	d="
M1.000000,41.471199 
	C40.323891,41.028755 79.662689,40.409737 118.966423,41.314293 
	C145.113251,41.916050 171.245193,41.672932 197.381836,41.970455 
	C260.007751,42.683353 322.644806,42.535732 385.263550,43.340382 
	C429.234772,43.905415 473.214783,43.001408 517.160706,44.224045 
	C562.132751,45.475235 607.112366,43.992073 652.057678,45.233505 
	C696.197388,46.452682 740.342834,45.001957 784.455688,46.223671 
	C829.260986,47.464558 874.073792,46.001923 918.852844,47.231434 
	C963.158875,48.447971 1007.471436,47.000633 1051.750610,48.227955 
	C1096.223022,49.460640 1140.702393,47.995934 1185.148071,49.229515 
	C1229.620728,50.463844 1274.100220,48.989521 1318.545776,50.228462 
	C1363.018433,51.468163 1407.497559,49.995129 1451.943359,51.227032 
	C1496.582397,52.464294 1541.228516,50.998955 1585.840942,52.228764 
	C1630.146851,53.450123 1674.459351,52.003426 1718.738525,53.226669 
	C1763.544189,54.464455 1808.345459,53.365635 1853.137207,54.226379 
	C1861.099731,54.379391 1869.083740,54.815128 1877.531982,54.974091 
	C1877.588135,55.627323 1878.973389,57.120728 1877.000122,57.011723 
	C1875.837280,56.947483 1874.667847,57.000000 1873.501465,57.000000 
	C1250.980225,57.000000 628.458984,56.993855 5.937780,57.123337 
	C1.543516,57.124252 0.449382,56.035202 0.923250,51.931229 
	C1.302984,48.642509 1.000000,45.274963 1.000000,41.471199 
z"/>
<path fill="#39B6ED" opacity="1.000000" stroke="none" 
	d="
M1791.279541,1.719720 
	C1776.819824,1.971398 1762.652466,1.789715 1748.492920,2.042649 
	C1683.039795,3.211847 1617.567627,2.190607 1552.126831,3.291287 
	C1501.824585,4.137345 1451.519531,2.858791 1401.248413,4.205179 
	C1350.947144,5.552368 1300.640991,3.864572 1250.369751,5.204066 
	C1199.901978,6.548792 1149.428711,4.855607 1098.991333,6.209161 
	C1048.856323,7.554603 998.716980,5.858326 948.612122,7.200913 
	C897.644775,8.566613 846.671448,6.852870 795.734070,8.211163 
	C745.932190,9.539178 696.126221,7.861203 646.354858,9.200760 
	C595.554077,10.568021 544.747314,8.852299 493.976654,10.210053 
	C443.841614,11.550809 393.702209,9.853270 343.597717,11.203218 
	C293.129974,12.562955 242.656891,10.858857 192.219040,12.205220 
	C141.584549,13.556831 90.954559,12.159605 40.340282,13.237136 
	C27.543781,13.509562 14.738522,13.737554 1.468584,13.990541 
	C1.000000,9.667718 -0.690233,3.648931 1.475903,1.478007 
	C3.637262,-0.688130 9.662461,1.000131 13.993692,1.000130 
	C606.016724,0.999993 1198.039673,1.000000 1790.531372,1.000000 
	C1791.191772,1.162182 1791.383667,1.324364 1791.279541,1.719720 
z"/>
<path fill="#53C0EF" opacity="1.000000" stroke="none" 
	d="
M1878.000000,1.500000 
	C1862.308105,1.997766 1846.616089,1.995532 1830.454712,1.984399 
	C1829.798828,1.810058 1829.612549,1.644615 1829.713135,1.239586 
	C1846.000000,1.000000 1862.000000,1.000000 1878.000000,1.500000 
z"/>
<path fill="#45BBEE" opacity="1.000000" stroke="none" 
	d="
M1829.531372,1.000000 
	C1830.000000,1.000000 1829.995850,1.488079 1829.990479,1.731790 
	C1817.298096,1.980400 1804.611084,1.985299 1791.453735,1.971547 
	C1790.983521,1.952894 1790.994995,1.476505 1790.997559,1.238253 
	C1803.687622,1.000000 1816.375122,1.000000 1829.531372,1.000000 
z"/>
</svg>