<?xml version="1.0" standalone="no"?>
<!DOCTYPE svg PUBLIC "-//W3C//DTD SVG 20010904//EN"
 "http://www.w3.org/TR/2001/REC-SVG-20010904/DTD/svg10.dtd">
<svg version="1.0" xmlns="http://www.w3.org/2000/svg"
 width="574.000000pt" height="272.000000pt" viewBox="0 0 574.000000 272.000000"
 preserveAspectRatio="xMidYMid meet">

<g transform="translate(0.000000,272.000000) scale(0.100000,-0.100000)"
fill="#1976d2"  stroke="none">
<path d="M5230 2460 c-17 -17 -20 -33 -20 -100 0 -111 10 -120 128 -120 116 0
122 6 122 123 0 110 -8 117 -127 117 -70 0 -86 -3 -103 -20z"/>
<path d="M324 2426 c-18 -14 -19 -36 -21 -828 -2 -644 0 -818 10 -838 l13 -25
384 0 c339 0 395 2 465 18 224 52 344 168 407 394 21 73 22 99 23 423 0 387
-6 440 -70 568 -67 132 -164 213 -309 257 -123 36 -232 45 -572 45 -252 0
-314 -3 -330 -14z m797 -214 c127 -42 202 -126 241 -271 18 -68 21 -105 21
-351 0 -214 -3 -292 -16 -352 -37 -176 -119 -261 -293 -299 -39 -8 -142 -13
-299 -13 l-240 -1 -3 658 -2 659 262 -4 c236 -4 270 -7 329 -26z"/>
<path d="M4850 2343 c-19 -1 -76 -5 -126 -9 l-91 -6 -67 -106 c-37 -59 -124
-194 -192 -301 -81 -126 -123 -199 -119 -210 9 -22 389 -600 395 -601 3 0 27
84 54 188 85 329 123 474 160 612 19 74 53 204 75 288 l39 152 -46 -2 c-26 0
-63 -3 -82 -5z"/>
<path d="M4070 2294 c-14 -2 -64 -6 -112 -9 -49 -4 -88 -11 -88 -16 0 -11 153
-269 160 -269 3 0 44 68 92 150 l86 150 -56 -1 c-31 -1 -68 -3 -82 -5z"/>
<path d="M3325 2241 l-70 -6 -22 -280 c-12 -154 -29 -357 -37 -451 -9 -94 -16
-195 -16 -225 l0 -54 118 -33 c64 -18 122 -32 128 -32 7 0 96 128 199 285
l187 285 -172 260 -173 260 -36 -2 c-20 -1 -67 -4 -106 -7z"/>
<path d="M2275 2013 c-42 -6 -122 -32 -170 -56 -206 -102 -316 -372 -285 -700
18 -184 68 -305 170 -407 165 -165 451 -195 700 -73 93 45 179 127 205 196 17
45 17 49 1 65 -13 13 -35 17 -100 17 l-83 0 -57 -57 c-31 -32 -80 -70 -109
-85 -48 -26 -61 -28 -162 -28 -94 0 -116 3 -150 22 -94 49 -177 180 -194 303
-5 36 -7 68 -4 73 2 4 199 7 438 7 381 0 435 2 449 16 22 22 21 155 -3 271
-65 313 -313 480 -646 436z m260 -199 c104 -52 185 -189 185 -314 l0 -50 -338
0 c-186 0 -341 2 -344 5 -11 11 15 154 36 201 42 92 122 162 211 185 17 5 67
7 111 5 67 -2 92 -8 139 -32z"/>
<path d="M5270 1994 c-40 -16 -40 -16 -40 -635 0 -530 2 -599 16 -613 19 -20
163 -23 182 -4 9 9 12 160 12 619 0 545 -2 608 -16 620 -17 14 -128 23 -154
13z"/>
<path d="M3895 1265 c-65 -113 -116 -207 -114 -209 2 -1 72 -21 154 -44 83
-23 260 -73 395 -112 135 -38 248 -66 251 -62 3 4 13 35 21 70 l16 62 -148 0
-148 0 -142 233 c-79 127 -148 240 -155 250 -11 15 -27 -9 -130 -188z"/>
<path d="M2500 461 c-86 -26 -120 -68 -120 -147 0 -99 65 -147 200 -146 41 0
87 5 103 11 25 10 27 14 27 71 l0 60 -70 0 c-38 0 -70 -4 -70 -8 0 -5 17 -7
38 -6 72 4 82 -3 82 -56 0 -45 -1 -48 -31 -54 -60 -12 -143 -6 -186 13 -48 23
-73 55 -80 108 -6 47 26 100 77 125 44 22 147 24 196 3 26 -11 34 -11 31 -2
-9 27 -138 46 -197 28z"/>
<path d="M3308 458 c-21 -6 -38 -15 -38 -20 0 -6 7 -7 18 -2 9 5 53 10 97 11
67 3 85 0 113 -17 24 -15 32 -27 32 -49 0 -28 -3 -30 -47 -36 -173 -20 -217
-35 -239 -77 -13 -25 -13 -32 1 -57 8 -16 25 -33 37 -37 38 -12 150 -7 196 9
37 13 44 13 49 1 15 -39 23 -3 23 100 0 97 -3 117 -19 138 -34 43 -135 60
-223 36z m222 -184 c0 -54 -1 -55 -37 -70 -84 -36 -202 -30 -229 11 -40 60 55
109 224 114 l42 1 0 -56z"/>
<path d="M1850 315 l0 -145 105 0 c166 0 207 27 213 138 3 58 1 71 -19 96 -35
44 -76 56 -194 56 l-105 0 0 -145z m229 119 c22 -9 48 -27 57 -42 21 -32 23
-96 5 -140 -21 -50 -55 -62 -171 -62 l-100 0 0 123 c0 68 3 127 7 130 13 14
163 7 202 -9z"/>
<path d="M2267 453 c-10 -17 -8 -283 3 -283 6 0 10 51 10 145 0 136 -2 156
-13 138z"/>
<path d="M2810 315 c0 -90 4 -145 10 -145 6 0 10 55 10 145 0 90 -4 145 -10
145 -6 0 -10 -55 -10 -145z"/>
<path d="M2960 451 l65 -6 3 -137 c1 -78 7 -138 12 -138 5 0 11 60 12 138 l3
137 70 6 c47 4 21 5 -80 6 -95 0 -126 -3 -85 -6z"/>
<path d="M3662 335 c4 -161 2 -159 148 -163 75 -3 110 0 110 7 0 7 -34 11 -98
11 -142 0 -142 0 -142 151 0 79 -4 119 -11 119 -7 0 -10 -40 -7 -125z"/>
</g>
</svg>
