<svg version="1.1" id="Layer_1" xmlns="http://www.w3.org/2000/svg" xmlns:xlink="http://www.w3.org/1999/xlink" x="0px" y="0px"
	 width="100%" viewBox="0 0 1897 54" enable-background="new 0 0 1897 54" xml:space="preserve">
<path fill="#B4E4F8" opacity="1.000000" stroke="none" 
	d="
M1.000000,30.000000 
	C1.000000,20.979105 1.000000,11.958208 1.468653,2.466381 
	C11.631809,1.986459 21.326313,1.977469 31.488144,1.973093 
	C42.312016,1.964728 52.668560,1.951750 63.491119,1.954763 
	C72.311981,1.950044 80.666840,1.929334 89.488426,1.931760 
	C118.429863,2.275236 146.904053,2.655387 175.379395,2.902121 
	C219.854599,3.287491 264.330597,3.582409 308.806244,3.915775 
	C353.281891,4.249142 397.757507,4.583156 442.233154,4.915975 
	C486.875488,5.250041 531.517822,5.582113 576.160156,5.916667 
	C620.469116,6.248723 664.778076,6.584045 709.087036,6.915611 
	C753.896057,7.250919 798.705017,7.581768 843.514038,7.917543 
	C887.656372,8.248322 931.798645,8.583641 975.940979,8.915474 
	C1020.416565,9.249811 1064.892212,9.582323 1109.367798,9.915610 
	C1153.843506,10.248898 1198.319092,10.582857 1242.794800,10.915225 
	C1287.603760,11.250085 1332.412720,11.581950 1377.221680,11.917712 
	C1421.364014,12.248479 1465.506104,12.624736 1509.648804,12.904985 
	C1572.957275,13.306913 1636.266724,13.595726 1699.575195,14.023840 
	C1725.051758,14.196122 1750.526245,14.770939 1776.002686,14.875784 
	C1816.667969,15.043140 1857.334229,14.970922 1898.000000,15.000000 
	C1898.000000,19.689255 1898.000000,24.378511 1897.531738,29.514080 
	C1896.230225,29.954967 1895.397217,29.944784 1894.564087,29.944784 
	C1264.875366,29.944008 635.186707,29.943880 5.498038,29.946133 
	C3.998692,29.946138 2.499346,29.981272 1.000000,30.000000 
z"/>
<path fill="#6AC8F2" opacity="1.000000" stroke="none" 
	d="
M1.000000,30.468679 
	C2.499346,29.981272 3.998692,29.946138 5.498038,29.946133 
	C635.186707,29.943880 1264.875366,29.944008 1894.564087,29.944784 
	C1895.397217,29.944784 1896.230225,29.954967 1897.531738,29.980196 
	C1898.000000,33.692909 1898.000000,37.385818 1897.531494,41.547905 
	C1882.929443,42.331028 1868.797363,42.813793 1854.662354,42.928551 
	C1804.036865,43.339569 1753.410400,43.625526 1702.784302,43.959564 
	C1652.324829,44.292503 1601.865234,44.625683 1551.405762,44.960060 
	C1501.279541,45.292229 1451.153320,45.627487 1401.027100,45.958683 
	C1350.234375,46.294281 1299.441650,46.625191 1248.648926,46.960690 
	C1198.522705,47.291779 1148.396362,47.627037 1098.270142,47.958641 
	C1047.644043,48.293552 997.017883,48.625141 946.391785,48.960167 
	C896.265564,49.291885 846.139343,49.627197 796.013123,49.958885 
	C745.387024,50.293884 694.760864,50.624901 644.134766,50.960373 
	C594.175171,51.291428 544.215698,51.641426 494.255951,51.954716 
	C437.631134,52.309803 381.006256,52.653996 324.381134,52.957973 
	C307.384979,53.049213 290.387665,52.917923 273.391541,53.013084 
	C217.266449,53.327328 161.141663,53.698505 104.546539,54.028976 
	C90.389824,54.014099 76.703316,54.018082 62.547165,54.013718 
	C46.457314,54.005527 30.836960,53.974552 15.217114,54.049503 
	C13.476596,54.057858 11.738969,54.668613 10.000000,55.000000 
	C7.039166,55.000000 4.078333,55.000000 1.000000,55.000000 
	C1.000000,46.979404 1.000000,38.958382 1.000000,30.468679 
z"/>
<path fill="#FEFFFF" opacity="1.000000" stroke="none" 
	d="
M1898.000000,14.525872 
	C1857.334229,14.970922 1816.667969,15.043140 1776.002686,14.875784 
	C1750.526245,14.770939 1725.051758,14.196122 1699.575195,14.023840 
	C1636.266724,13.595726 1572.957275,13.306913 1509.648804,12.904985 
	C1465.506104,12.624736 1421.364014,12.248479 1377.221680,11.917712 
	C1332.412720,11.581950 1287.603760,11.250085 1242.794800,10.915225 
	C1198.319092,10.582857 1153.843506,10.248898 1109.367798,9.915610 
	C1064.892212,9.582323 1020.416565,9.249811 975.940979,8.915474 
	C931.798645,8.583641 887.656372,8.248322 843.514038,7.917543 
	C798.705017,7.581768 753.896057,7.250919 709.087036,6.915611 
	C664.778076,6.584045 620.469116,6.248723 576.160156,5.916667 
	C531.517822,5.582113 486.875488,5.250041 442.233154,4.915975 
	C397.757507,4.583156 353.281891,4.249142 308.806244,3.915775 
	C264.330597,3.582409 219.854599,3.287491 175.379395,2.902121 
	C146.904053,2.655387 118.429863,2.275236 89.481071,1.705028 
	C89.006981,1.455160 89.000000,1.000000 89.000000,1.000000 
	C692.000000,1.000000 1295.000000,1.000000 1898.000000,1.000000 
	C1898.000000,5.387243 1898.000000,9.719494 1898.000000,14.525872 
z"/>
<path fill="#39B6ED" opacity="1.000000" stroke="none" 
	d="
M105.016754,54.047829 
	C161.141663,53.698505 217.266449,53.327328 273.391541,53.013084 
	C290.387665,52.917923 307.384979,53.049213 324.381134,52.957973 
	C381.006256,52.653996 437.631134,52.309803 494.255951,51.954716 
	C544.215698,51.641426 594.175171,51.291428 644.134766,50.960373 
	C694.760864,50.624901 745.387024,50.293884 796.013123,49.958885 
	C846.139343,49.627197 896.265564,49.291885 946.391785,48.960167 
	C997.017883,48.625141 1047.644043,48.293552 1098.270142,47.958641 
	C1148.396362,47.627037 1198.522705,47.291779 1248.648926,46.960690 
	C1299.441650,46.625191 1350.234375,46.294281 1401.027100,45.958683 
	C1451.153320,45.627487 1501.279541,45.292229 1551.405762,44.960060 
	C1601.865234,44.625683 1652.324829,44.292503 1702.784302,43.959564 
	C1753.410400,43.625526 1804.036865,43.339569 1854.662354,42.928551 
	C1868.797363,42.813793 1882.929443,42.331028 1897.531494,42.008541 
	C1898.000000,46.332283 1898.000000,50.664570 1898.000000,54.998428 
	C1300.645752,55.000000 703.291565,55.000000 105.471336,54.761932 
	C105.005356,54.523861 105.016754,54.047829 105.016754,54.047829 
z"/>
<path fill="#55C1F0" opacity="1.000000" stroke="none" 
	d="
M10.468657,55.000000 
	C11.738969,54.668613 13.476596,54.057858 15.217114,54.049503 
	C30.836960,53.974552 46.457314,54.005527 62.541168,54.258041 
	C63.004814,54.510715 63.000000,55.000000 63.000000,55.000000 
	C45.645771,55.000000 28.291544,55.000000 10.468657,55.000000 
z"/>
<path fill="#45BBEE" opacity="1.000000" stroke="none" 
	d="
M63.468658,55.000000 
	C63.000000,55.000000 63.004814,54.510715 63.010811,54.266388 
	C76.703316,54.018082 90.389824,54.014099 104.546539,54.028976 
	C105.016754,54.047829 105.005356,54.523861 105.002678,54.761932 
	C91.312439,55.000000 77.624878,55.000000 63.468658,55.000000 
z"/>
<path fill="#E0F4FC" opacity="1.000000" stroke="none" 
	d="
M63.025108,1.938772 
	C52.668560,1.951750 42.312016,1.964728 31.481009,1.731188 
	C31.006548,1.484671 31.000000,1.000000 31.000000,1.000000 
	C41.354229,1.000000 51.708454,1.000000 62.535309,1.234755 
	C63.007938,1.469510 63.025108,1.938772 63.025108,1.938772 
z"/>
<path fill="#CEEDFB" opacity="1.000000" stroke="none" 
	d="
M30.531342,1.000000 
	C31.000000,1.000000 31.006548,1.484671 31.013683,1.726575 
	C21.326313,1.977469 11.631809,1.986459 1.468653,1.997724 
	C1.652328,1.666667 2.302641,1.047699 2.957289,1.043078 
	C11.992073,0.979303 21.027452,1.000000 30.531342,1.000000 
z"/>
<path fill="#F1FAFE" opacity="1.000000" stroke="none" 
	d="
M63.491119,1.954763 
	C63.025108,1.938772 63.007938,1.469510 63.003967,1.234755 
	C71.354233,1.000000 79.708466,1.000000 88.531349,1.000000 
	C89.000000,1.000000 89.006981,1.455160 89.014336,1.681892 
	C80.666840,1.929334 72.311981,1.950044 63.491119,1.954763 
z"/>
</svg>